<?xml version="1.0" standalone="no"?>
<!DOCTYPE svg PUBLIC "-//W3C//DTD SVG 20010904//EN"
 "http://www.w3.org/TR/2001/REC-SVG-20010904/DTD/svg10.dtd">
<svg version="1.0" xmlns="http://www.w3.org/2000/svg"
 width="269.000000pt" height="269.000000pt" viewBox="0 0 269.000000 269.000000"
 preserveAspectRatio="xMidYMid meet">
<metadata>
Created by potrace 1.14, written by Peter Selinger 2001-2017
</metadata>
<g transform="translate(0.000000,269.000000) scale(0.100000,-0.100000)"
fill="#000000" stroke="none">
<path d="M1210 2607 c-3 -2 -30 -7 -61 -10 -178 -19 -379 -96 -549 -210 -96
-64 -263 -231 -327 -327 -89 -132 -168 -312 -189 -427 -11 -63 5 -32 32 63 56
195 162 373 314 525 314 315 752 440 1180 337 156 -38 313 -111 441 -204 33
-25 59 -40 57 -32 -6 19 -131 104 -221 149 -172 87 -326 126 -532 135 -77 4
-142 4 -145 1z"/>
<path d="M898 1364 c3 -451 5 -434 -62 -453 -22 -7 6 -9 99 -9 89 0 119 3 95
8 -70 17 -70 15 -70 369 l0 316 48 -50 c26 -27 175 -186 331 -352 156 -167
286 -303 290 -303 3 0 5 184 3 408 -3 453 -7 426 63 450 24 8 5 10 -95 10
-103 0 -119 -2 -92 -11 62 -20 63 -21 60 -366 l-3 -313 -328 351 c-181 193
-332 351 -335 351 -4 0 -6 -183 -4 -406z"/>
<path d="M2391 1422 c23 -38 32 -67 39 -128 5 -43 13 -95 19 -114 6 -19 12
-64 12 -100 2 -46 4 -29 11 60 4 69 6 142 3 163 -8 56 -38 109 -79 141 l-36
27 31 -49z"/>
<path d="M40 1355 c0 -31 26 -43 47 -22 21 21 9 47 -22 47 -20 0 -25 -5 -25
-25z"/>
<path d="M2328 1255 c-4 -141 1 -159 71 -235 23 -25 41 -48 41 -52 0 -5 5 -8
10 -8 6 0 10 12 10 26 0 14 -4 23 -9 20 -12 -8 -38 67 -50 140 -10 64 -30 119
-56 156 -14 21 -15 19 -17 -47z"/>
<path d="M2559 1161 c-13 -23 -14 -28 -2 -28 7 0 16 11 19 24 9 34 1 36 -17 4z"/>
<path d="M74 1083 c3 -10 12 -47 21 -83 21 -84 77 -216 132 -308 179 -305 484
-523 835 -598 101 -21 295 -29 403 -15 188 23 379 91 510 181 41 29 92 58 112
66 21 7 30 13 20 14 -12 0 3 19 48 61 96 91 139 153 142 208 l3 46 -18 -50
c-31 -91 -70 -143 -161 -219 -114 -94 -158 -124 -256 -174 -166 -83 -352 -125
-550 -125 -139 0 -165 3 -291 33 -228 54 -416 160 -590 334 -105 105 -177 203
-236 321 -42 82 -93 222 -103 283 -4 23 -11 42 -17 42 -5 0 -7 -8 -4 -17z"/>
<path d="M2515 1089 c-4 -6 -5 -12 -2 -15 2 -3 7 2 10 11 7 17 1 20 -8 4z"/>
<path d="M2270 1033 c0 -5 8 -17 17 -28 14 -18 15 -18 9 -2 -3 10 -6 23 -6 28
0 5 -4 9 -10 9 -5 0 -10 -3 -10 -7z"/>
<path d="M2470 907 c0 -67 -4 -84 -30 -131 -29 -51 -80 -109 -68 -76 20 51 15
47 -17 -15 -20 -38 -42 -76 -47 -83 -6 -7 -9 -15 -6 -17 3 -3 19 17 36 44 19
31 57 69 101 101 39 28 71 54 71 56 0 3 -13 -4 -29 -15 -41 -30 -46 -26 -20
15 18 30 21 49 20 112 -2 100 -11 107 -11 9z"/>
<path d="M2573 945 c0 -22 2 -30 4 -17 2 12 2 30 0 40 -3 9 -5 -1 -4 -23z"/>
<path d="M2311 885 c-3 -63 -5 -74 -12 -50 -5 20 -6 7 -3 -37 3 -38 3 -68 0
-68 -16 0 -52 72 -57 115 l-6 50 -2 -46 c-1 -36 5 -54 27 -85 16 -22 32 -53
37 -69 7 -24 10 -9 17 75 5 58 7 125 5 150 -2 30 -4 18 -6 -35z"/>
<path d="M2241 924 c0 -11 3 -14 6 -6 3 7 2 16 -1 19 -3 4 -6 -2 -5 -13z"/>
<path d="M2441 924 c0 -11 3 -14 6 -6 3 7 2 16 -1 19 -3 4 -6 -2 -5 -13z"/>
<path d="M2496 894 c-4 -14 -5 -28 -3 -31 3 -2 8 8 11 23 4 14 5 28 3 31 -3 2
-8 -8 -11 -23z"/>
<path d="M2281 894 c0 -11 3 -14 6 -6 3 7 2 16 -1 19 -3 4 -6 -2 -5 -13z"/>
<path d="M2546 853 c-6 -14 -5 -15 5 -6 7 7 10 15 7 18 -3 3 -9 -2 -12 -12z"/>
<path d="M2519 813 c-13 -16 -12 -17 4 -4 16 13 21 21 13 21 -2 0 -10 -8 -17
-17z"/>
<path d="M2542 695 c-65 -30 -143 -103 -238 -222 -63 -79 -80 -94 -126 -112
l-53 -20 76 0 c66 -1 81 2 120 27 59 38 107 94 160 183 23 40 64 95 90 121 54
54 48 59 -29 23z"/>
</g>
</svg>
